<svg width="50" height="50" viewBox="0 0 50 50" fill="none" xmlns="http://www.w3.org/2000/svg">
<path d="M46.0651 25.895H34.7051C34.4858 25.8951 34.2735 25.9723 34.1054 26.113C33.9372 26.2538 33.8238 26.4492 33.7851 26.665C33.5452 27.9606 33.034 29.1909 32.2851 30.275C32.1549 30.4593 32.0949 30.6841 32.116 30.9088C32.137 31.1335 32.2379 31.3432 32.4001 31.5L40.4301 39.5C40.6072 39.6753 40.846 39.7741 41.0951 39.775H41.1351C41.2655 39.7694 41.3933 39.7368 41.5104 39.6791C41.6275 39.6214 41.7312 39.54 41.8151 39.44C44.7964 35.9013 46.6079 31.5256 47.0001 26.915C47.0083 26.787 46.9902 26.6587 46.947 26.538C46.9037 26.4173 46.8362 26.3067 46.7487 26.213C46.6611 26.1194 46.5553 26.0446 46.4377 25.9933C46.3202 25.9421 46.1934 25.9154 46.0651 25.915V25.895Z" fill="#007EE5"/>
<path d="M31.0698 32.8001C30.9146 32.6453 30.7103 32.5496 30.4921 32.5296C30.2739 32.5095 30.0556 32.5662 29.8748 32.6901C28.7221 33.4829 27.4068 34.0081 26.025 34.2273C24.6432 34.4465 23.23 34.3541 21.8885 33.957C20.547 33.5599 19.3112 32.8681 18.2714 31.9321C17.2316 30.996 16.4141 29.8395 15.8786 28.547C15.3432 27.2545 15.1033 25.8586 15.1766 24.4615C15.2499 23.0644 15.6344 21.7013 16.3021 20.4719C16.9698 19.2424 17.9038 18.1778 19.0357 17.3556C20.1677 16.5335 21.4691 15.9747 22.8448 15.7201C23.0602 15.6804 23.2551 15.5668 23.3956 15.3989C23.5362 15.2309 23.6137 15.0191 23.6148 14.8001V3.44006C23.6138 3.31032 23.5862 3.18216 23.5337 3.06349C23.4813 2.94482 23.4051 2.83815 23.3098 2.75006C23.2146 2.65936 23.1011 2.59012 22.9769 2.54699C22.8527 2.50387 22.7207 2.48787 22.5898 2.50006C19.0621 2.80782 15.6566 3.94241 12.6492 5.81186C9.6418 7.68131 7.11718 10.233 5.27994 13.2602C3.4427 16.2874 2.34454 19.7048 2.07445 23.2356C1.80437 26.7663 2.36996 30.3111 3.72538 33.5825C5.08081 36.8539 7.18794 39.7599 9.87599 42.065C12.564 44.3701 15.7574 46.0095 19.1972 46.8503C22.637 47.691 26.2265 47.7095 29.6748 46.9041C33.1231 46.0988 36.3332 44.4924 39.0448 42.2151C39.1433 42.131 39.2237 42.0278 39.2813 41.9118C39.3389 41.7958 39.3724 41.6694 39.3798 41.5401C39.385 41.4099 39.3633 41.2802 39.3159 41.1588C39.2686 41.0375 39.1967 40.9273 39.1048 40.8351L31.0698 32.8001Z" fill="#007EE5"/>
<path d="M26.26 15.725C28.1187 16.0774 29.8282 16.9814 31.1659 18.3191C32.5036 19.6568 33.4075 21.3663 33.76 23.225C33.7993 23.4456 33.9161 23.6449 34.0894 23.787C34.2626 23.9291 34.481 24.0046 34.705 24H46.065C46.1932 23.9995 46.32 23.9729 46.4376 23.9216C46.5551 23.8704 46.661 23.7956 46.7485 23.702C46.8361 23.6083 46.9036 23.4977 46.9469 23.377C46.9901 23.2562 47.0082 23.1279 47 23C46.5536 17.7125 44.2504 12.7537 40.4983 9.00162C36.7463 5.24955 31.7874 2.94636 26.5 2.49996C26.372 2.49178 26.2437 2.50986 26.123 2.55311C26.0023 2.59635 25.8917 2.66384 25.798 2.75143C25.7043 2.83901 25.6296 2.94483 25.5783 3.06238C25.5271 3.17993 25.5004 3.30673 25.5 3.43496V14.8C25.5004 15.0182 25.5763 15.2295 25.7148 15.3982C25.8534 15.5668 26.046 15.6822 26.26 15.725Z" fill="#007EE5"/>
</svg>
