<svg width="51" height="50" viewBox="0 0 51 50" fill="none" xmlns="http://www.w3.org/2000/svg">
<path d="M37.3984 9.14844H43.5156L35.8281 1.1875V7.57812C35.8281 8.44531 36.5312 9.14844 37.3984 9.14844Z" fill="#007EE5"/>
<path d="M37.3984 10.7578C35.6484 10.7578 34.2188 9.32812 34.2188 7.57812V0H7.96875C7.10938 0 6.39844 0.703125 6.39844 1.5625V48.4219C6.39844 49.2812 7.10938 49.9922 7.96875 49.9922H43.0312C43.9141 49.9922 44.6016 49.2969 44.6016 48.4219V10.7578H37.3984ZM10.6562 3.84375H26.0234C26.4688 3.84375 26.8281 4.20312 26.8281 4.64844C26.8281 5.09375 26.4688 5.45312 26.0234 5.45312H10.6562C10.2109 5.45312 9.85156 5.09375 9.85156 4.64844C9.85156 4.20312 10.2109 3.84375 10.6562 3.84375ZM10.6562 9.14844H26.0234C26.4688 9.14844 26.8281 9.50781 26.8281 9.95312C26.8281 10.3984 26.4688 10.7578 26.0234 10.7578H10.6562C10.2109 10.7578 9.85156 10.3984 9.85156 9.95312C9.84375 9.50781 10.2109 9.14844 10.6562 9.14844ZM10.6562 14.4453H26.0234C26.4688 14.4453 26.8281 14.8047 26.8281 15.25C26.8281 15.7031 26.4688 16.0547 26.0234 16.0547H10.6562C10.2109 16.0547 9.85156 15.7031 9.85156 15.25C9.84375 14.8047 10.2109 14.4453 10.6562 14.4453ZM9.84375 20.5547C9.84375 20.1016 10.2031 19.75 10.6484 19.75H37.4297C37.875 19.75 38.2344 20.1016 38.2344 20.5547C38.2344 21 37.875 21.3594 37.4297 21.3594H10.6562C10.2109 21.3594 9.84375 21 9.84375 20.5547ZM18.8047 35.25C18.6484 35.0781 18.5781 34.8594 18.5938 34.6406C19.3438 26.25 27.4375 25.7422 27.5234 25.7344C27.7344 25.7187 27.9531 25.8047 28.1094 25.9531C28.2734 26.1094 28.3672 26.3047 28.3672 26.5234L28.5234 34.6641C28.5234 34.8828 28.4453 35.0859 28.2891 35.2422C28.1328 35.3984 27.9375 35.4844 27.7188 35.4844L19.4063 35.5078C19.1797 35.5078 18.9609 35.4219 18.8047 35.25ZM36.7344 43.8828C34.9063 45.7109 32.4766 46.7109 29.8984 46.7109C27.3125 46.7109 24.8828 45.7031 23.0547 43.8828C21.2109 42.0312 20.1719 39.4609 20.2344 36.8516C20.2422 36.4062 20.5938 36.0625 21.0391 36.0625C21.0391 36.0625 21.0469 36.0625 21.0547 36.0625L29.0703 36.2266L28.9141 28.2031C28.9062 27.7578 29.2578 27.3906 29.7031 27.3828C32.3594 27.3438 34.8594 28.3281 36.7344 30.2031C38.625 32.0938 39.5547 34.5703 39.5547 37.0469C39.5547 39.5156 38.6172 42 36.7344 43.8828Z" fill="#007EE5"/>
<path d="M30.5391 29.0078L30.6953 37.0234C30.7031 37.2422 30.6172 37.4531 30.4609 37.6094C30.3047 37.7656 30.0625 37.8359 29.875 37.8437L21.8594 37.6797C22.0156 39.5937 22.8203 41.3594 24.1953 42.7266C25.7109 44.25 27.7422 45.0859 29.8984 45.0859C30.9766 45.0859 32.0156 44.875 32.9844 44.4766C33.9453 44.0781 34.8281 43.4922 35.5859 42.7344C38.7344 39.5859 38.7344 34.4766 35.5859 31.3281C34.2188 29.9687 32.4453 29.1562 30.5391 29.0078Z" fill="#007EE5"/>
<path d="M20.3203 33.8984L26.8906 33.875L26.7734 27.4609C25.0391 27.7891 21.1641 29.0625 20.3203 33.8984Z" fill="#007EE5"/>
</svg>
