<svg width="51" height="50" viewBox="0 0 51 50" fill="none" xmlns="http://www.w3.org/2000/svg">
<path d="M12.9999 27.3437C13.0026 27.5497 12.9639 27.754 12.8863 27.9448C12.8088 28.1355 12.6938 28.3088 12.5481 28.4544C12.4025 28.6001 12.2292 28.7151 12.0385 28.7926C11.8477 28.8702 11.6434 28.9089 11.4374 28.9062H2.84369C2.55342 28.9039 2.26924 28.8227 2.02154 28.6713C1.77385 28.5199 1.57195 28.3041 1.43744 28.0469C1.31236 27.7849 1.26082 27.4939 1.28834 27.2049C1.31586 26.9159 1.42141 26.6399 1.59369 26.4062C2.97648 24.5501 4.82165 23.0887 6.94525 22.168C6.03274 21.3327 5.33164 20.2926 4.89965 19.1334C4.46766 17.9742 4.31713 16.7289 4.46045 15.5001C4.60378 14.2714 5.03686 13.0942 5.72405 12.0655C6.41124 11.0369 7.3329 10.1861 8.41316 9.58321C9.49342 8.98035 10.7014 8.64265 11.9377 8.59789C13.174 8.55313 14.4032 8.80261 15.5243 9.32578C16.6453 9.84895 17.626 10.6309 18.3858 11.6071C19.1456 12.5834 19.6627 13.7262 19.8945 14.9414C19.9523 15.2579 19.9122 15.5845 19.7796 15.8776C19.647 16.1707 19.4281 16.4165 19.1523 16.582C16.6262 18.08 14.7049 20.4159 13.7226 23.1836C13.2384 24.5169 12.9937 25.9253 12.9999 27.3437ZM49.4062 26.4062C48.0234 24.5501 46.1782 23.0887 44.0546 22.168C44.9671 21.3327 45.6682 20.2926 46.1002 19.1334C46.5322 17.9742 46.6828 16.7289 46.5394 15.5001C46.3961 14.2714 45.963 13.0942 45.2758 12.0655C44.5886 11.0369 43.667 10.1861 42.5867 9.58321C41.5065 8.98035 40.2985 8.64265 39.0622 8.59789C37.8259 8.55313 36.5966 8.80261 35.4756 9.32578C34.3546 9.84895 33.3738 10.6309 32.6141 11.6071C31.8543 12.5834 31.3372 13.7262 31.1054 14.9414C31.0476 15.2579 31.0877 15.5845 31.2203 15.8776C31.3529 16.1707 31.5717 16.4165 31.8476 16.582C34.377 18.0761 36.2994 20.4134 37.2773 23.1836C37.7615 24.5169 38.0062 25.9253 37.9999 27.3437C37.9973 27.5497 38.0359 27.754 38.1135 27.9448C38.1911 28.1355 38.3061 28.3088 38.4517 28.4544C38.5974 28.6001 38.7707 28.7151 38.9614 28.7926C39.1522 28.8702 39.3565 28.9089 39.5624 28.9062H48.1562C48.4464 28.9062 48.7308 28.8254 48.9776 28.6729C49.2245 28.5203 49.424 28.3021 49.5537 28.0425C49.6835 27.783 49.7384 27.4924 49.7124 27.2034C49.6863 26.9144 49.5803 26.6384 49.4062 26.4062ZM31.2031 34.7851C32.7581 33.5933 33.9006 31.9441 34.4702 30.0694C35.0397 28.1948 35.0075 26.1888 34.3782 24.3333C33.7489 22.4778 32.5541 20.8661 30.9617 19.7247C29.3693 18.5832 27.4592 17.9694 25.4999 17.9694C23.5407 17.9694 21.6306 18.5832 20.0382 19.7247C18.4457 20.8661 17.2509 22.4778 16.6217 24.3333C15.9924 26.1888 15.9602 28.1948 16.5297 30.0694C17.0992 31.9441 18.2418 33.5933 19.7968 34.7851C16.7588 36.1339 14.2958 38.5139 12.8437 41.5039C12.7282 41.7415 12.6764 42.0051 12.6935 42.2688C12.7106 42.5324 12.796 42.7871 12.9413 43.0078C13.0766 43.2342 13.2683 43.4216 13.4976 43.5517C13.727 43.6818 13.9862 43.7501 14.2499 43.75H36.7499C37.0136 43.7501 37.2729 43.6818 37.5022 43.5517C37.7316 43.4216 37.9233 43.2342 38.0585 43.0078C38.2038 42.7871 38.2892 42.5324 38.3064 42.2688C38.3235 42.0051 38.2717 41.7415 38.1562 41.5039C36.7041 38.5139 34.2411 36.1339 31.2031 34.7851Z" fill="#007EE5"/>
</svg>
