<svg width="51" height="50" viewBox="0 0 51 50" fill="none" xmlns="http://www.w3.org/2000/svg">
<path fill-rule="evenodd" clip-rule="evenodd" d="M6.11179 2.94727H31.5276C33.9696 2.94727 35.9677 4.94531 35.9677 7.38731V19.9265H35.6536C34.131 19.9265 32.8882 21.1694 32.8882 22.692V24.1487C32.8882 24.9256 33.2118 25.6297 33.7309 26.133C33.2117 26.6363 32.8882 27.3404 32.8882 28.1172V29.5739C32.8882 30.3508 33.2118 31.0549 33.7309 31.5582C33.2117 32.0615 32.8882 32.7656 32.8882 33.5425V34.9992C32.8882 35.7761 33.2118 36.4802 33.7309 36.9835C33.2117 37.4868 32.8882 38.1908 32.8882 38.9677V40.4244C32.8882 41.2013 33.2118 41.9054 33.7309 42.4087C33.2859 42.8401 32.9845 43.419 32.9076 44.0649C32.4623 44.2117 31.9964 44.2863 31.5276 44.2861H6.11179C3.6697 44.2861 1.67175 42.2881 1.67175 39.8461V7.38731C1.67175 4.94531 3.6697 2.94727 6.11179 2.94727ZM35.6536 47.0527H48.1252C48.7853 47.0527 49.3282 46.5099 49.3282 45.8497V44.393C49.3282 43.7328 48.7853 43.1899 48.1252 43.1899H35.6536C34.9935 43.1899 34.4507 43.7329 34.4507 44.393V45.8497C34.4507 46.5098 34.9935 47.0527 35.6536 47.0527ZM35.6536 41.6275H48.1252C48.7853 41.6275 49.3282 41.0847 49.3282 40.4245V38.9678C49.3282 38.3076 48.7853 37.7647 48.1252 37.7647H35.6536C34.9935 37.7647 34.4507 38.3077 34.4507 38.9678V40.4245C34.4507 41.0846 34.9935 41.6275 35.6536 41.6275ZM35.6536 30.777H48.1252C48.7853 30.777 49.3282 30.2341 49.3282 29.5739V28.1172C49.3282 27.457 48.7853 26.9142 48.1252 26.9142H35.6536C34.9935 26.9142 34.4507 27.4571 34.4507 28.1172V29.5739C34.4507 30.2341 34.9935 30.777 35.6536 30.777ZM35.6536 36.2022H48.1252C48.7853 36.2022 49.3282 35.6594 49.3282 34.9992V33.5425C49.3282 32.8823 48.7853 32.3395 48.1252 32.3395H35.6536C34.9935 32.3395 34.4507 32.8824 34.4507 33.5425V34.9992C34.4507 35.6594 34.9935 36.2022 35.6536 36.2022ZM35.6536 25.3518H48.1252C48.7853 25.3518 49.3282 24.8089 49.3282 24.1487V22.692C49.3282 22.0318 48.7853 21.489 48.1252 21.489H35.6536C34.9935 21.489 34.4507 22.0319 34.4507 22.692V24.1487C34.4507 24.8089 34.9935 25.3518 35.6536 25.3518ZM7.59187 9.32031C7.02966 9.32031 6.57117 9.77881 6.57117 10.341V14.3474C6.57117 14.9096 7.02966 15.3681 7.59187 15.3681H30.0476C30.6098 15.3681 31.0683 14.9096 31.0683 14.3474V10.341C31.0683 9.77881 30.6098 9.32031 30.0476 9.32031H7.59187ZM8.52966 20.2292C7.96746 20.2292 7.50896 20.6877 7.50896 21.2499V22.5769C7.50896 23.1391 7.96746 23.5976 8.52966 23.5976H12.3446C12.9068 23.5976 13.3653 23.1391 13.3653 22.5769V21.2499C13.3653 20.6877 12.9068 20.2292 12.3446 20.2292H8.52966ZM25.2948 34.5447C24.7326 34.5447 24.2741 35.0032 24.2741 35.5654V36.8924C24.2741 37.4546 24.7326 37.9131 25.2948 37.9131H29.1097C29.6719 37.9131 30.1304 37.4546 30.1304 36.8924V35.5654C30.1304 35.0032 29.6719 34.5447 29.1097 34.5447H25.2948ZM16.9122 34.5447C16.35 34.5447 15.8915 35.0032 15.8915 35.5654V36.8924C15.8915 37.4546 16.35 37.9131 16.9122 37.9131H20.7271C21.2893 37.9131 21.7478 37.4546 21.7478 36.8924V35.5654C21.7478 35.0032 21.2893 34.5447 20.7271 34.5447H16.9122ZM8.52966 34.5447C7.96746 34.5447 7.50896 35.0032 7.50896 35.5654V36.8924C7.50896 37.4546 7.96746 37.9131 8.52966 37.9131H12.3446C12.9068 37.9131 13.3653 37.4546 13.3653 36.8924V35.5654C13.3653 35.0032 12.9068 34.5447 12.3446 34.5447H8.52966ZM25.2948 27.387C24.7326 27.387 24.2741 27.8455 24.2741 28.4077V29.7347C24.2741 30.2969 24.7326 30.7554 25.2948 30.7554H29.1097C29.6719 30.7554 30.1304 30.2969 30.1304 29.7347V28.4077C30.1304 27.8455 29.6719 27.387 29.1097 27.387H25.2948ZM16.9122 27.387C16.35 27.387 15.8915 27.8455 15.8915 28.4077V29.7347C15.8915 30.2969 16.35 30.7554 16.9122 30.7554H20.7271C21.2893 30.7554 21.7478 30.2969 21.7478 29.7347V28.4077C21.7478 27.8455 21.2893 27.387 20.7271 27.387H16.9122ZM8.52966 27.387C7.96746 27.387 7.50896 27.8455 7.50896 28.4077V29.7347C7.50896 30.2969 7.96746 30.7554 8.52966 30.7554H12.3446C12.9068 30.7554 13.3653 30.2969 13.3653 29.7347V28.4077C13.3653 27.8455 12.9068 27.387 12.3446 27.387H8.52966ZM25.2948 20.2292C24.7326 20.2292 24.2741 20.6877 24.2741 21.2499V22.5769C24.2741 23.1391 24.7326 23.5976 25.2948 23.5976H29.1097C29.6719 23.5976 30.1304 23.1391 30.1304 22.5769V21.2499C30.1304 20.6877 29.6719 20.2292 29.1097 20.2292H25.2948ZM16.9122 20.2292C16.35 20.2292 15.8915 20.6877 15.8915 21.2499V22.5769C15.8915 23.1391 16.35 23.5976 16.9122 23.5976H20.7271C21.2893 23.5976 21.7478 23.1391 21.7478 22.5769V21.2499C21.7478 20.6877 21.2893 20.2292 20.7271 20.2292H16.9122Z" fill="#007EE5"/>
</svg>
