<svg width="40" height="40" viewBox="0 0 40 40" fill="none" xmlns="http://www.w3.org/2000/svg">
<path d="M36.1664 17.1667L21.1664 3.83337C20.4998 3.33337 19.6664 3.33337 18.9998 3.83337L3.99976 17.1667C3.33309 17.8334 3.16642 18.8334 3.83309 19.5C4.49976 20.1667 5.49976 20.3334 6.16642 19.6667L6.66642 19V35C6.66642 36 7.33309 36.6667 8.33309 36.6667H31.6664C32.6664 36.6667 33.3331 36 33.3331 35V19L33.8331 19.5C34.4998 20.1667 35.4998 20 36.1664 19.3334C36.8331 18.8334 36.8331 17.6667 36.1664 17.1667ZM23.3331 25H21.6664V26.6667C21.6664 27.6667 20.9998 28.3334 19.9998 28.3334C18.9998 28.3334 18.3331 27.6667 18.3331 26.6667V25H16.6664C15.6664 25 14.9998 24.3334 14.9998 23.3334C14.9998 22.3334 15.6664 21.6667 16.6664 21.6667H18.3331V20C18.3331 19 18.9998 18.3334 19.9998 18.3334C20.9998 18.3334 21.6664 19 21.6664 20V21.6667H23.3331C24.3331 21.6667 24.9998 22.3334 24.9998 23.3334C24.9998 24.3334 24.3331 25 23.3331 25Z" fill="#007EE5"/>
</svg>
