<svg width="20" height="20" viewBox="0 0 20 20" fill="none" xmlns="http://www.w3.org/2000/svg">
<path d="M13.7931 8.62063H6.20687C6.02396 8.62063 5.84854 8.54797 5.71921 8.41864C5.58987 8.2893 5.51721 8.11388 5.51721 7.93098V5.51718C5.51721 3.04546 7.52825 1.03442 9.99997 1.03442C12.4717 1.03442 14.4827 3.04546 14.4827 5.51718V7.93098C14.4827 8.11388 14.4101 8.2893 14.2807 8.41864C14.1514 8.54797 13.976 8.62063 13.7931 8.62063ZM6.89652 7.24132H13.1034V5.51718C13.1034 3.80615 11.711 2.41373 9.99997 2.41373C8.28894 2.41373 6.89652 3.80615 6.89652 5.51718V7.24132Z" fill="#007EE5"/>
<path d="M15.8621 18.9655H4.13794C2.99725 18.9655 2.06897 18.0372 2.06897 16.8965V9.3103C2.06897 8.16961 2.99725 7.24133 4.13794 7.24133H15.8621C17.0028 7.24133 17.931 8.16961 17.931 9.3103V16.8965C17.931 18.0372 17.0028 18.9655 15.8621 18.9655ZM4.13794 8.62064C3.95503 8.62064 3.77961 8.6933 3.65028 8.82264C3.52094 8.95197 3.44828 9.12739 3.44828 9.3103V16.8965C3.44828 17.0794 3.52094 17.2548 3.65028 17.3842C3.77961 17.5135 3.95503 17.5862 4.13794 17.5862H15.8621C16.045 17.5862 16.2204 17.5135 16.3497 17.3842C16.4791 17.2548 16.5517 17.0794 16.5517 16.8965V9.3103C16.5517 9.12739 16.4791 8.95197 16.3497 8.82264C16.2204 8.6933 16.045 8.62064 15.8621 8.62064H4.13794Z" fill="#007EE5"/>
</svg>
