<svg width="37" height="34" viewBox="0 0 37 34" fill="none" xmlns="http://www.w3.org/2000/svg">
<path d="M7.08337 4.50004C7.63591 4.50004 8.16581 4.28055 8.55651 3.88985C8.94721 3.49915 9.16671 2.96924 9.16671 2.41671C9.16671 1.86417 8.94721 1.33427 8.55651 0.943569C8.16581 0.552868 7.63591 0.333374 7.08337 0.333374H2.91671C2.36417 0.333374 1.83427 0.552868 1.44357 0.943569C1.05287 1.33427 0.833374 1.86417 0.833374 2.41671V31.5834C0.833374 32.1359 1.05287 32.6658 1.44357 33.0565C1.83427 33.4472 2.36417 33.6667 2.91671 33.6667H7.08337C7.63591 33.6667 8.16581 33.4472 8.55651 33.0565C8.94721 32.6658 9.16671 32.1359 9.16671 31.5834C9.16671 31.0308 8.94721 30.5009 8.55651 30.1102C8.16581 29.7195 7.63591 29.5 7.08337 29.5H5.00004V4.50004H7.08337ZM35.875 15.7917L30 7.45837C29.6814 7.00923 29.1979 6.7045 28.6553 6.61081C28.1127 6.51712 27.555 6.64208 27.1042 6.95837C26.8789 7.11626 26.6871 7.31722 26.5398 7.54963C26.3926 7.78205 26.2929 8.04133 26.2464 8.31251C26.1999 8.58368 26.2076 8.86138 26.269 9.12957C26.3304 9.39775 26.4443 9.65112 26.6042 9.87504L30.1875 14.9167H13.3334C12.7808 14.9167 12.2509 15.1362 11.8602 15.5269C11.4695 15.9176 11.25 16.4475 11.25 17C11.25 17.5526 11.4695 18.0825 11.8602 18.4732C12.2509 18.8639 12.7808 19.0834 13.3334 19.0834H30L26.25 24.0834C26.0859 24.3022 25.9665 24.5513 25.8986 24.8163C25.8307 25.0814 25.8156 25.3572 25.8543 25.628C25.893 25.8988 25.9847 26.1594 26.1241 26.3948C26.2634 26.6302 26.4478 26.8359 26.6667 27C27.0273 27.2705 27.4659 27.4167 27.9167 27.4167C28.2401 27.4167 28.5591 27.3414 28.8484 27.1968C29.1377 27.0521 29.3893 26.8421 29.5834 26.5834L35.8334 18.25C36.1002 17.8977 36.248 17.4696 36.2555 17.0277C36.263 16.5858 36.1298 16.1529 35.875 15.7917Z" fill="#007EE5"/>
</svg>
