<svg width="18" height="14" viewBox="0 0 18 14" fill="none" xmlns="http://www.w3.org/2000/svg">
<path d="M17.7125 1.17494C17.6976 1.13564 17.6787 1.09795 17.6563 1.06244C17.6473 1.03888 17.6369 1.01591 17.625 0.993689C17.5668 0.935936 17.5017 0.885558 17.4313 0.843689L17.325 0.806189H0.837506C0.793877 0.801583 0.749884 0.801583 0.706255 0.806189L0.600005 0.843689C0.566937 0.861657 0.53556 0.882576 0.506256 0.906189C0.472388 0.930096 0.440984 0.957314 0.412505 0.987439C0.40061 1.00965 0.390171 1.03262 0.381256 1.05619C0.315157 1.12326 0.269616 1.20784 0.250005 1.29994C0.248391 1.32491 0.248391 1.34997 0.250005 1.37494V12.6249C0.250005 12.7907 0.315853 12.9497 0.433064 13.0669C0.550274 13.1841 0.709245 13.2499 0.875005 13.2499H17.125C17.2908 13.2499 17.4497 13.1841 17.5669 13.0669C17.6842 12.9497 17.75 12.7907 17.75 12.6249V1.37494C17.7516 1.34997 17.7516 1.32491 17.75 1.29994C17.7419 1.25708 17.7293 1.21518 17.7125 1.17494ZM15.2875 1.99994L9.00001 6.83744L2.71251 1.99994H15.2875ZM16.5 11.9999H1.50001V2.62494L8.61876 8.09994C8.72804 8.18407 8.86209 8.22969 9.00001 8.22969C9.13792 8.22969 9.27197 8.18407 9.38126 8.09994L16.5 2.62494V11.9999Z" fill="#007EE5"/>
</svg>
