<svg width="51" height="50" viewBox="0 0 51 50" fill="none" xmlns="http://www.w3.org/2000/svg">
<path d="M33.8054 28.384V17.1039H32.3154V28.384C32.3154 28.6055 32.2642 28.8239 32.1659 29.0223C32.0677 29.2207 31.9249 29.3937 31.7487 29.5278L33.0604 31.0703L34.3825 29.5278C34.205 29.3942 34.0607 29.2216 33.9606 29.0232C33.8605 28.8249 33.8074 28.6062 33.8054 28.384ZM13.4171 36.6002H10.584L14.4979 40.1049V37.681C14.5023 37.5379 14.4773 37.3954 14.4246 37.2623C14.3718 37.1292 14.2923 37.0083 14.1911 36.9071C14.0898 36.8058 13.969 36.7264 13.8359 36.6736C13.7028 36.6208 13.5603 36.5958 13.4171 36.6002Z" fill="#007EE5"/>
<path d="M38.0027 9.23401H13.0289C12.1698 9.23678 11.3467 9.57927 10.7392 10.1867C10.1318 10.7942 9.78927 11.6173 9.7865 12.4764V34.4596H13.4381C14.273 34.4596 15.0737 34.7913 15.6641 35.3816C16.2544 35.972 16.5861 36.7727 16.5861 37.6076V40.7135H38.0027C38.8654 40.7135 39.6928 40.3708 40.3028 39.7608C40.9128 39.1508 41.2555 38.3234 41.2555 37.4607V12.4869C41.2555 11.6242 40.9128 10.7968 40.3028 10.1868C39.6928 9.57672 38.8654 9.23401 38.0027 9.23401ZM25.5158 28.2057H14.2881C14.0098 28.2057 13.7429 28.0951 13.5461 27.8983C13.3493 27.7016 13.2388 27.4347 13.2388 27.1564C13.2388 26.8781 13.3493 26.6112 13.5461 26.4144C13.7429 26.2176 14.0098 26.107 14.2881 26.107H25.5158C25.7941 26.107 26.061 26.2176 26.2578 26.4144C26.4545 26.6112 26.5651 26.8781 26.5651 27.1564C26.5651 27.4347 26.4545 27.7016 26.2578 27.8983C26.061 28.0951 25.7941 28.2057 25.5158 28.2057ZM25.5158 22.6338H14.2881C14.0098 22.6338 13.7429 22.5232 13.5461 22.3265C13.3493 22.1297 13.2388 21.8628 13.2388 21.5845C13.2388 21.3062 13.3493 21.0393 13.5461 20.8425C13.7429 20.6457 14.0098 20.5352 14.2881 20.5352H25.5158C25.7941 20.5352 26.061 20.6457 26.2578 20.8425C26.4545 21.0393 26.5651 21.3062 26.5651 21.5845C26.5651 21.8628 26.4545 22.1297 26.2578 22.3265C26.061 22.5232 25.7941 22.6338 25.5158 22.6338ZM25.5158 17.0724H14.2881C14.0098 17.0724 13.7429 16.9619 13.5461 16.7651C13.3493 16.5683 13.2388 16.3014 13.2388 16.0231C13.2388 15.7448 13.3493 15.4779 13.5461 15.2811C13.7429 15.0843 14.0098 14.9738 14.2881 14.9738H25.5158C25.7941 14.9738 26.061 15.0843 26.2578 15.2811C26.4545 15.4779 26.5651 15.7448 26.5651 16.0231C26.5651 16.3014 26.4545 16.5683 26.2578 16.7651C26.061 16.9619 25.7941 17.0724 25.5158 17.0724ZM37.2996 29.4229L34.2251 33.0011C34.0892 33.1587 33.9209 33.2851 33.7316 33.3718C33.5424 33.4585 33.3367 33.5033 33.1286 33.5033C32.9204 33.5033 32.7148 33.4585 32.5255 33.3718C32.3363 33.2851 32.168 33.1587 32.032 33.0011L28.9575 29.4229C28.8265 29.2705 28.7421 29.0836 28.7142 28.8846C28.6862 28.6855 28.7161 28.4827 28.8001 28.3001C28.8829 28.116 29.017 27.9597 29.1864 27.8499C29.3557 27.7401 29.5532 27.6814 29.755 27.681H30.2692V16.4323C30.2692 16.0483 30.4217 15.68 30.6933 15.4084C30.9649 15.1368 31.3332 14.9843 31.7172 14.9843H34.5399C34.924 14.9843 35.2923 15.1368 35.5638 15.4084C35.8354 15.68 35.988 16.0483 35.988 16.4323V27.7125H36.4916C36.6951 27.7087 36.8952 27.764 37.0678 27.8719C37.2403 27.9798 37.3777 28.1355 37.4634 28.3201C37.549 28.5047 37.5791 28.7102 37.55 28.9116C37.5209 29.1129 37.4339 29.3015 37.2996 29.4544V29.4229Z" fill="#007EE5"/>
</svg>
