<svg width="13" height="17" viewBox="0 0 13 17" fill="none" xmlns="http://www.w3.org/2000/svg">
<path d="M3.987 1.06605L3.27 1.28205C2.63158 1.47458 2.06144 1.84548 1.62669 2.35109C1.19194 2.8567 0.910678 3.47598 0.816001 4.13605C0.519001 6.20405 1.183 8.62205 2.784 11.3951C4.381 14.161 6.139 15.943 8.074 16.723C8.69573 16.9736 9.37633 17.0404 10.0349 16.9154C10.6935 16.7904 11.3023 16.479 11.789 16.018L12.331 15.504C12.6829 15.171 12.902 14.7214 12.9474 14.239C12.9929 13.7565 12.8616 13.274 12.578 12.881L11.222 11.001C11.0387 10.7472 10.7805 10.5572 10.4837 10.4575C10.1869 10.3577 9.86638 10.3534 9.567 10.445L7.516 11.072L7.463 11.082C7.237 11.115 6.715 10.626 6.065 9.50005C5.385 8.32205 5.245 7.63305 5.432 7.45505L6.475 6.48205C6.85641 6.12651 7.11696 5.66049 7.22008 5.14937C7.3232 4.63824 7.26373 4.10766 7.05 3.63205L6.388 2.16105C6.18894 1.71839 5.8357 1.36323 5.39413 1.16176C4.95256 0.960296 4.4528 0.926278 3.988 1.06605H3.987ZM5.477 2.57105L6.137 4.04205C6.26554 4.32728 6.30148 4.64562 6.23978 4.95233C6.17808 5.25904 6.02183 5.53871 5.793 5.75205L4.747 6.72605C4.078 7.36005 4.3 8.44205 5.2 10C6.046 11.466 6.818 12.1901 7.648 12.064L7.772 12.038L9.86 11.401C9.95981 11.3704 10.0667 11.3717 10.1657 11.4049C10.2647 11.4381 10.3508 11.5014 10.412 11.5861L11.768 13.466C11.91 13.6625 11.9758 13.9038 11.9532 14.1452C11.9305 14.3865 11.821 14.6114 11.645 14.778L11.102 15.292C10.7543 15.6211 10.3195 15.8434 9.84925 15.9325C9.37896 16.0217 8.89296 15.974 8.449 15.795C6.751 15.111 5.146 13.484 3.651 10.8951C2.152 8.30005 1.545 6.09305 1.806 4.27805C1.87356 3.80648 2.07445 3.36403 2.38502 3.00279C2.69559 2.64156 3.1029 2.37658 3.559 2.23905L4.276 2.02305C4.50846 1.9532 4.75839 1.97028 4.97918 2.07111C5.19997 2.17194 5.37656 2.34963 5.476 2.57105H5.477Z" fill="#007EE5"/>
</svg>
