<svg width="51" height="50" viewBox="0 0 51 50" fill="none" xmlns="http://www.w3.org/2000/svg">
<g clip-path="url(#clip0_32_283)">
<path d="M8.61951 7.08352V9.19748H6.83679C6.91042 8.19309 7.64138 7.35696 8.61951 7.08352ZM27.1407 9.19758H25.358V7.08362C26.3361 7.35696 27.0618 8.19846 27.1407 9.19758ZM24.3062 0.525903V9.19758H9.67117V0.525903C9.67117 0.0460205 10.2573 -0.178491 10.5809 0.168384L11.8956 1.58821L13.2051 0.168384C13.4049 -0.0419678 13.7782 -0.0419678 13.9781 0.168384L15.2876 1.58821L16.6022 0.168384C16.7022 0.063208 16.8388 0.00012207 16.9861 0.00012207C17.1334 0.00012207 17.2753 0.0633057 17.3753 0.168384L18.6847 1.58821L19.9994 0.168384C20.194 -0.0419678 20.5725 -0.0419678 20.7672 0.168384L22.0818 1.58821L23.3913 0.168384C23.7204 -0.184351 24.3062 0.0571533 24.3062 0.525903ZM18.2127 27.3598H15.7623C15.4753 27.3598 15.2418 27.5932 15.2418 27.8803C15.2418 28.1673 15.4752 28.401 15.7623 28.401H18.2127C18.4997 28.401 18.7332 28.1673 18.7332 27.8803C18.7332 27.5932 18.4999 27.3598 18.2127 27.3598ZM18.2127 40.4029H15.7623C15.4753 40.4029 15.2418 40.6363 15.2418 40.9234C15.2418 41.2105 15.4752 41.4441 15.7623 41.4441H18.2127C18.4997 41.4441 18.7332 41.2104 18.7332 40.9234C18.7332 40.6364 18.4999 40.4029 18.2127 40.4029ZM10.8293 27.3598H8.37908C8.09207 27.3598 7.85837 27.5932 7.85837 27.8803C7.85837 28.1673 8.09207 28.401 8.37908 28.401H10.8292C11.1162 28.401 11.3499 28.1673 11.3499 27.8803C11.35 27.5932 11.1163 27.3598 10.8293 27.3598ZM18.2127 36.0551H15.7623C15.4753 36.0551 15.2418 36.2885 15.2418 36.5756C15.2418 36.8627 15.4752 37.0963 15.7623 37.0963H18.2127C18.4997 37.0963 18.7332 36.8626 18.7332 36.5756C18.7332 36.2886 18.4999 36.0551 18.2127 36.0551ZM18.2127 44.7503H15.7623C15.4753 44.7503 15.2418 44.984 15.2418 45.271C15.2418 45.558 15.4752 45.7915 15.7623 45.7915H18.2127C18.4997 45.7915 18.7332 45.5581 18.7332 45.271C18.7332 44.984 18.4999 44.7503 18.2127 44.7503ZM10.8293 44.7503H8.37908C8.09207 44.7503 7.85837 44.984 7.85837 45.271C7.85837 45.558 8.09207 45.7915 8.37908 45.7915H10.8292C11.1162 45.7915 11.3499 45.5581 11.3499 45.271C11.35 44.984 11.1163 44.7503 10.8293 44.7503ZM10.8293 31.7075H8.37908C8.09207 31.7075 7.85837 31.9409 7.85837 32.2281C7.85837 32.5151 8.09207 32.7488 8.37908 32.7488H10.8292C11.1162 32.7488 11.3499 32.5151 11.3499 32.2281C11.35 31.9408 11.1163 31.7075 10.8293 31.7075ZM10.8293 36.0551H8.37908C8.09207 36.0551 7.85837 36.2885 7.85837 36.5756C7.85837 36.8627 8.09207 37.0963 8.37908 37.0963H10.8292C11.1162 37.0963 11.3499 36.8626 11.3499 36.5756C11.35 36.2886 11.1163 36.0551 10.8293 36.0551ZM10.8293 40.4029H8.37908C8.09207 40.4029 7.85837 40.6363 7.85837 40.9234C7.85837 41.2105 8.09207 41.4441 8.37908 41.4441H10.8292C11.1162 41.4441 11.3499 41.2104 11.3499 40.9234C11.3499 40.6364 11.1163 40.4029 10.8293 40.4029ZM18.2127 31.7075H15.7623C15.4753 31.7075 15.2418 31.9409 15.2418 32.2281C15.2418 32.5151 15.4752 32.7488 15.7623 32.7488H18.2127C18.4997 32.7488 18.7332 32.5151 18.7332 32.2281C18.7332 31.9408 18.4999 31.7075 18.2127 31.7075ZM25.596 36.0551H23.1459C22.8589 36.0551 22.6252 36.2885 22.6252 36.5756C22.6252 36.8627 22.8589 37.0963 23.1459 37.0963H25.596C25.883 37.0963 26.1167 36.8626 26.1167 36.5756C26.1167 36.2886 25.8831 36.0551 25.596 36.0551Z" fill="#007EE5"/>
<path d="M27.6929 10.2493H6.27942C4.83333 10.2493 3.65002 11.4273 3.65002 12.8787V47.3707C3.65002 48.8167 4.83323 50 6.27942 50H27.6929C29.1443 50 30.3223 48.8168 30.3223 47.3707V12.8787C30.3223 11.4273 29.1444 10.2493 27.6929 10.2493ZM10.8281 46.8448H8.37766C7.50999 46.8448 6.8053 46.14 6.8053 45.2724C6.8053 44.4047 7.50999 43.7001 8.37766 43.7001H10.8282C11.6959 43.7001 12.4006 44.4047 12.4006 45.2724C12.4006 46.1401 11.6958 46.8448 10.8281 46.8448ZM10.8281 42.4958H8.37766C7.50999 42.4958 6.8053 41.7911 6.8053 40.9235C6.8053 40.0558 7.50999 39.3511 8.37766 39.3511H10.8282C11.6959 39.3511 12.4006 40.0558 12.4006 40.9235C12.4006 41.7912 11.6958 42.4958 10.8281 42.4958ZM10.8281 38.1468H8.37766C7.50999 38.1468 6.8053 37.442 6.8053 36.5745C6.8053 35.7068 7.50999 35.0022 8.37766 35.0022H10.8282C11.6959 35.0022 12.4006 35.7069 12.4006 36.5745C12.4006 37.4421 11.6958 38.1468 10.8281 38.1468ZM10.8281 33.7979H8.37766C7.50999 33.7979 6.8053 33.0932 6.8053 32.2255C6.8053 31.363 7.50999 30.6532 8.37766 30.6532H10.8282C11.6959 30.6532 12.4006 31.3631 12.4006 32.2255C12.4006 33.0932 11.6958 33.7979 10.8281 33.7979ZM10.8281 29.4541H8.37766C7.50999 29.4541 6.8053 28.7495 6.8053 27.8818C6.8053 27.0141 7.50999 26.3094 8.37766 26.3094H10.8282C11.6959 26.3094 12.4006 27.0142 12.4006 27.8818C12.4006 28.7495 11.6958 29.4541 10.8281 29.4541ZM18.2115 46.8448H15.7609C14.8932 46.8448 14.1884 46.14 14.1884 45.2724C14.1884 44.4047 14.8931 43.7001 15.7609 43.7001H18.2115C19.0791 43.7001 19.7838 44.4047 19.7838 45.2724C19.7838 46.1401 19.0792 46.8448 18.2115 46.8448ZM18.2115 42.4958H15.7609C14.8932 42.4958 14.1884 41.7911 14.1884 40.9235C14.1884 40.0558 14.8931 39.3511 15.7609 39.3511H18.2115C19.0791 39.3511 19.7838 40.0558 19.7838 40.9235C19.7838 41.7912 19.0792 42.4958 18.2115 42.4958ZM18.2115 38.1468H15.7609C14.8932 38.1468 14.1884 37.442 14.1884 36.5745C14.1884 35.7068 14.8931 35.0022 15.7609 35.0022H18.2115C19.0791 35.0022 19.7838 35.7069 19.7838 36.5745C19.7837 37.4421 19.0792 38.1468 18.2115 38.1468ZM18.2115 33.7979H15.7609C14.8932 33.7979 14.1884 33.0932 14.1884 32.2255C14.1884 31.363 14.8931 30.6532 15.7609 30.6532H18.2115C19.0791 30.6532 19.7838 31.3631 19.7838 32.2255C19.7837 33.0932 19.0792 33.7979 18.2115 33.7979ZM18.2115 29.4541H15.7609C14.8932 29.4541 14.1884 28.7495 14.1884 27.8818C14.1884 27.0141 14.8931 26.3094 15.7609 26.3094H18.2115C19.0791 26.3094 19.7838 27.0142 19.7838 27.8818C19.7837 28.7495 19.0792 29.4541 18.2115 29.4541ZM25.5947 46.8448H23.1441C22.2764 46.8448 21.5717 46.14 21.5717 45.2724C21.5717 44.4047 22.2764 43.7001 23.1441 43.7001H25.5947C26.4623 43.7001 27.1671 44.4047 27.1671 45.2724C27.1671 46.1401 26.4623 46.8448 25.5947 46.8448ZM25.5947 42.4958H23.1441C22.2764 42.4958 21.5717 41.7911 21.5717 40.9235C21.5717 40.0558 22.2764 39.3511 23.1441 39.3511H25.5947C26.4623 39.3511 27.1671 40.0558 27.1671 40.9235C27.1671 41.7912 26.4623 42.4958 25.5947 42.4958ZM25.5947 38.1468H23.1441C22.2764 38.1468 21.5717 37.442 21.5717 36.5745C21.5717 35.7068 22.2764 35.0022 23.1441 35.0022H25.5947C26.4623 35.0022 27.1671 35.7069 27.1671 36.5745C27.1671 37.4421 26.4623 38.1468 25.5947 38.1468ZM25.5947 33.7979H23.1441C22.2764 33.7979 21.5717 33.0932 21.5717 32.2255C21.5717 31.363 22.2764 30.6532 23.1441 30.6532H25.5947C26.4623 30.6532 27.1671 31.3631 27.1671 32.2255C27.1671 33.0932 26.4623 33.7979 25.5947 33.7979ZM25.5947 29.4541H23.1441C22.2764 29.4541 21.5717 28.7495 21.5717 27.8818C21.5717 27.0141 22.2764 26.3094 23.1441 26.3094H25.5947C26.4623 26.3094 27.1671 27.0142 27.1671 27.8818C27.1671 28.7495 26.4623 29.4541 25.5947 29.4541ZM27.1671 22.6284C27.1671 23.5013 26.4624 24.206 25.5895 24.206H8.38293C7.51526 24.206 6.8053 23.5013 6.8053 22.6284V14.9822C6.8053 14.1092 7.51526 13.4045 8.38293 13.4045H25.5896C26.4625 13.4045 27.1672 14.1093 27.1672 14.9822L27.1671 22.6284Z" fill="#007EE5"/>
<path d="M25.596 27.3597H23.1459C22.8589 27.3597 22.6252 27.5931 22.6252 27.8802C22.6252 28.1673 22.8589 28.401 23.1459 28.401H25.596C25.8831 28.401 26.1167 28.1673 26.1167 27.8802C26.1168 27.5931 25.8832 27.3597 25.596 27.3597ZM25.596 40.4028H23.1459C22.8589 40.4028 22.6252 40.6362 22.6252 40.9233C22.6252 41.2104 22.8589 41.444 23.1459 41.444H25.596C25.8831 41.444 26.1167 41.2103 26.1167 40.9233C26.1167 40.6363 25.8832 40.4028 25.596 40.4028ZM25.596 44.7503H23.1459C22.8589 44.7503 22.6252 44.984 22.6252 45.271C22.6252 45.558 22.8589 45.7915 23.1459 45.7915H25.596C25.8831 45.7915 26.1167 45.5581 26.1167 45.271C26.1168 44.984 25.8832 44.7503 25.596 44.7503ZM25.596 31.7075H23.1459C22.8589 31.7075 22.6252 31.9409 22.6252 32.228C22.6252 32.515 22.8589 32.7487 23.1459 32.7487H25.596C25.8831 32.7487 26.1167 32.515 26.1167 32.228C26.1168 31.9408 25.8832 31.7075 25.596 31.7075Z" fill="#007EE5"/>
<path d="M45.2465 20.8823H31.374V24.3426H47.35V22.9858C47.35 21.8237 46.4035 20.8823 45.2465 20.8823ZM31.374 29.4541V39.3668H45.2466C46.4035 39.3668 47.3501 38.4254 47.3501 37.2633V29.454H31.374V29.4541ZM44.1947 36.7375H41.2551C40.9606 36.7375 40.7292 36.5008 40.7292 36.2116C40.7292 35.9224 40.9606 35.6857 41.2551 35.6857H44.1947C44.484 35.6857 44.7206 35.9224 44.7206 36.2116C44.7206 36.5008 44.484 36.7375 44.1947 36.7375ZM44.1947 33.7979H36.9535C36.6644 33.7979 36.4276 33.5665 36.4276 33.272C36.4276 32.9827 36.6643 32.7461 36.9535 32.7461H44.1947C44.484 32.7461 44.7206 32.9827 44.7206 33.272C44.7206 33.5664 44.484 33.7979 44.1947 33.7979Z" fill="#007EE5"/>
<path d="M47.35 25.3944H31.374V28.4024H47.35V25.3944Z" fill="#007EE5"/>
</g>
<defs>
<clipPath id="clip0_32_283">
<rect width="50" height="50" fill="white" transform="translate(0.5)"/>
</clipPath>
</defs>
</svg>
