<svg width="51" height="50" viewBox="0 0 51 50" fill="none" xmlns="http://www.w3.org/2000/svg">
<g clip-path="url(#clip0_32_317)">
<path d="M15.0834 37.5C12.7813 37.5 10.9375 39.3645 10.9375 41.6666C10.9375 43.9687 12.7813 45.8333 15.0834 45.8333C17.3855 45.8333 19.25 43.9687 19.25 41.6666C19.25 39.3645 17.3855 37.5 15.0834 37.5ZM2.58337 4.16663V8.33329H6.75004L14.2396 24.1354L11.4271 29.2395C11.1042 29.8437 10.9167 30.5208 10.9167 31.25C10.9167 33.552 12.7813 35.4166 15.0834 35.4166H40.0834V31.25H15.9688C15.6771 31.25 15.448 31.0208 15.448 30.7291C15.448 30.6354 15.4688 30.552 15.5105 30.4791L17.375 27.0833H32.8959C34.4584 27.0833 35.823 26.2187 36.5417 24.9375L43.9896 11.4166C44.1563 11.125 44.25 10.7812 44.25 10.4166C44.25 9.86409 44.0306 9.33419 43.6399 8.94349C43.2491 8.55279 42.7192 8.33329 42.1667 8.33329H11.3646L9.38546 4.16663H2.58337ZM35.9167 37.5C33.6146 37.5 31.7709 39.3645 31.7709 41.6666C31.7709 43.9687 33.6146 45.8333 35.9167 45.8333C38.2188 45.8333 40.0834 43.9687 40.0834 41.6666C40.0834 39.3645 38.2188 37.5 35.9167 37.5Z" fill="#007EE5"/>
</g>
<defs>
<clipPath id="clip0_32_317">
<rect width="50" height="50" fill="white" transform="translate(0.5)"/>
</clipPath>
</defs>
</svg>
