<svg width="14" height="17" viewBox="0 0 14 17" fill="none" xmlns="http://www.w3.org/2000/svg">
<path d="M11.375 9C12.4105 9 13.25 9.83947 13.25 10.875V11.5C13.25 13.9643 10.9256 16.5 7 16.5C3.07439 16.5 0.75 13.9643 0.75 11.5V10.875C0.75 9.83947 1.58947 9 2.625 9H11.375ZM11.375 10.25H2.625C2.27982 10.25 2 10.5298 2 10.875V11.5C2 13.2971 3.7902 15.25 7 15.25C10.2098 15.25 12 13.2971 12 11.5V10.875C12 10.5298 11.7202 10.25 11.375 10.25ZM7 0.875C8.89848 0.875 10.4375 2.41402 10.4375 4.3125C10.4375 6.21098 8.89848 7.75 7 7.75C5.10152 7.75 3.5625 6.21098 3.5625 4.3125C3.5625 2.41402 5.10152 0.875 7 0.875ZM7 2.125C5.79188 2.125 4.8125 3.10438 4.8125 4.3125C4.8125 5.52062 5.79188 6.5 7 6.5C8.20812 6.5 9.1875 5.52062 9.1875 4.3125C9.1875 3.10438 8.20812 2.125 7 2.125Z" fill="#007EE5"/>
</svg>
