<svg width="51" height="50" viewBox="0 0 51 50" fill="none" xmlns="http://www.w3.org/2000/svg">
<path d="M44.1523 14.3408C44.167 14.2431 44.1425 14.1357 44.0791 14.0381C44.0742 14.0332 44.0693 14.0234 44.0644 14.0185C44.0595 14.0137 44.0547 14.0039 44.0498 13.999C44.0449 13.9941 44.04 13.9844 44.0351 13.9795L44.0205 13.9648C44.0205 13.9648 44.0205 13.9599 44.0156 13.9599L42.5849 12.5293C41.4814 11.4209 40.373 10.3174 39.2695 9.21385C38.0244 7.96873 36.7842 6.7285 35.5439 5.48338L32.8779 2.81736C32.7216 2.66111 32.5703 2.4951 32.4043 2.34373C32.2138 2.16795 32.0039 2.19725 31.7744 2.19725H10.6074C9.78708 2.19725 8.96189 2.124 8.21482 2.53904C7.36521 3.01756 6.85739 3.93064 6.84763 4.89744V44.8779C6.84763 44.9609 6.84275 45.039 6.84763 45.122C6.86228 46.4648 7.86325 47.6074 9.19626 47.7783C9.64548 47.8369 10.1142 47.8027 10.5683 47.8027H40.5537C41.1201 47.8027 41.7451 47.8564 42.2871 47.6758C43.3955 47.3096 44.1425 46.2793 44.1572 45.1123V14.3408H44.1523ZM36.789 39.2578H14.2109C13.664 39.2578 13.2588 38.8086 13.2343 38.2812C13.2099 37.7539 13.6982 37.3047 14.2109 37.3047H15.7343V28.1836C15.7343 27.915 15.7002 27.5879 15.8271 27.3388C16.1299 26.7383 16.8769 26.8554 17.4336 26.8554H19.499C19.709 26.8554 19.9238 26.8603 20.1338 26.8652C20.1582 26.8652 20.1875 26.8652 20.2119 26.8701C20.2265 26.8701 20.2412 26.875 20.2558 26.875C20.2705 26.875 20.2851 26.8799 20.2998 26.8799C20.3095 26.8799 20.3193 26.8847 20.3291 26.8847C20.3535 26.8896 20.3779 26.8945 20.4023 26.9043H20.4072C20.4414 26.914 20.4756 26.9287 20.5097 26.9433C20.7539 27.0508 20.9248 27.2607 20.998 27.539C21.0127 27.583 21.0371 27.6367 21.042 27.6904C21.042 27.7002 21.0468 27.7051 21.0468 27.7099V27.7148C21.0468 27.7295 21.0468 27.7441 21.0517 27.7636C21.0517 27.7685 21.0468 27.7734 21.0468 27.7783V37.2998H23.0488V37.2461C23.0488 37.1631 23.0586 37.0752 23.0586 36.9922C23.0586 36.9043 23.0634 36.8164 23.0634 36.7285C23.0683 36.4648 23.0781 36.2011 23.083 35.9424C23.083 35.8691 23.0879 35.791 23.0879 35.7178C23.0879 35.6543 23.0879 35.5957 23.0927 35.5322V22.3437C23.0927 22.2217 23.083 22.1045 23.083 21.9824C23.083 21.9385 23.0879 21.8896 23.0927 21.8457C23.0976 21.8164 23.1025 21.792 23.1074 21.7676L23.1367 21.665C23.1416 21.6553 23.1465 21.6406 23.1513 21.6308L23.166 21.6015L23.2099 21.5137C23.2148 21.5088 23.2148 21.499 23.2197 21.4941C23.2295 21.4795 23.2392 21.4599 23.2539 21.4453C23.3857 21.2597 23.5908 21.1328 23.8447 21.0986C23.8691 21.0937 23.8984 21.0937 23.9277 21.0888C24.0156 21.084 24.1084 21.0791 24.1963 21.0791H24.2597C24.7529 21.0693 25.2461 21.084 25.7392 21.0937H27.3066C27.3799 21.0937 27.4482 21.084 27.5215 21.0888C27.6142 21.0937 27.7021 21.1084 27.7802 21.1377C27.7851 21.1377 27.7949 21.1426 27.7998 21.1426C27.8633 21.1621 27.917 21.1914 27.9707 21.2256C27.9902 21.2402 28.0097 21.25 28.0244 21.2646C28.0439 21.2793 28.0586 21.2939 28.0781 21.3086L28.1025 21.333L28.1269 21.3574C28.1562 21.3916 28.1855 21.4258 28.2099 21.4648C28.2148 21.4746 28.2246 21.4844 28.2295 21.4941C28.249 21.5234 28.2636 21.5527 28.2783 21.5869C28.2832 21.5967 28.2881 21.6064 28.2929 21.6211C28.3125 21.665 28.3271 21.709 28.3369 21.7578C28.3418 21.7724 28.3467 21.792 28.3515 21.8066C28.3564 21.8164 28.3564 21.831 28.3613 21.8408C28.3662 21.8701 28.3711 21.8994 28.3711 21.9336V37.3047H30.4414C30.4414 36.6797 30.4707 36.0547 30.4707 35.4297V24.5654C30.4707 24.4433 30.4609 24.3262 30.4951 24.2041C30.6269 23.7256 31.0517 23.584 31.4912 23.584H34.7773C35.0703 23.584 35.3242 23.6719 35.5 23.8476C35.5244 23.872 35.5488 23.9013 35.5732 23.9306C35.6074 23.9746 35.6367 24.0234 35.6611 24.0771C35.6855 24.1308 35.705 24.1894 35.7246 24.248C35.7392 24.2871 35.7441 24.3262 35.749 24.3701V37.3047H36.7841C37.331 37.3047 37.7363 37.7539 37.7607 38.2812C37.7851 38.8086 37.2968 39.2578 36.789 39.2578ZM34.3623 13.8183H33.7177C33.6787 13.8183 33.6347 13.8135 33.5957 13.8135C33.5371 13.7988 33.4785 13.789 33.4199 13.7744C33.3711 13.7597 33.1562 13.7158 33.2929 13.7353C33.3076 13.7353 33.3222 13.7402 33.332 13.7402C33.3125 13.7353 33.2832 13.7256 33.2636 13.7158C33.2148 13.6914 33.1709 13.667 33.122 13.6377L33.0488 13.5888C33.039 13.5742 32.917 13.4765 32.8925 13.457C32.8828 13.4472 32.8388 13.4082 32.7998 13.3691C32.7949 13.3594 32.79 13.3496 32.7802 13.3398L32.7656 13.3105C32.7461 13.2861 32.7314 13.2568 32.7119 13.2324C32.7021 13.2178 32.6631 13.1543 32.6338 13.1006C32.6289 13.0908 32.624 13.0762 32.6191 13.0566C32.6142 13.0322 32.6045 13.0127 32.5947 12.9883C32.5898 12.9785 32.5898 12.9736 32.5849 12.9638C32.5654 12.9053 32.5849 12.8467 32.5361 12.7881V12.7246C32.5312 12.7002 32.5263 12.6855 32.5263 12.6758C32.5263 12.6806 32.5312 12.7002 32.5361 12.7148C32.5361 12.6806 32.5312 12.6513 32.5312 12.6318C32.5312 12.5488 32.5312 12.4707 32.5361 12.3877V7.51951C32.5361 6.86033 32.5459 6.20115 32.5508 5.54197L34.8164 7.8076L40.8271 13.8183H34.3623Z" fill="#007EE5"/>
</svg>
