<svg width="51" height="38" viewBox="0 0 51 38" fill="none" xmlns="http://www.w3.org/2000/svg">
<path d="M2.48443 24.8593C2.17408 24.8611 1.87022 24.7705 1.6116 24.5989C1.35297 24.4273 1.1513 24.1826 1.03229 23.896C0.913276 23.6094 0.882321 23.2938 0.943367 22.9895C1.00441 22.6852 1.1547 22.406 1.37505 22.1874L10.5001 12.9999C10.7928 12.7089 11.1888 12.5456 11.6016 12.5456C12.0144 12.5456 12.4104 12.7089 12.7032 12.9999L18.1563 18.4531L29.5157 7.09369C29.8084 6.80268 30.2044 6.63933 30.6172 6.63933C31.03 6.63933 31.426 6.80268 31.7188 7.09369L36.4063 11.7812L47.3438 0.843693C47.563 0.588797 47.8585 0.411388 48.1866 0.337811C48.5146 0.264234 48.8576 0.298412 49.1646 0.435271C49.4717 0.572129 49.7264 0.80437 49.891 1.0975C50.0556 1.39064 50.1212 1.72903 50.0782 2.06244V10.3906C50.0782 10.805 49.9136 11.2024 49.6205 11.4954C49.3275 11.7884 48.9301 11.9531 48.5157 11.9531C48.1013 11.9531 47.7038 11.7884 47.4108 11.4954C47.1178 11.2024 46.9532 10.805 46.9532 10.3906V5.89057L37.5782 15.2656C37.2854 15.5566 36.8894 15.7199 36.4766 15.7199C36.0638 15.7199 35.6678 15.5566 35.3751 15.2656L30.6876 10.5781L19.2501 21.8437C18.9573 22.1347 18.5613 22.2981 18.1485 22.2981C17.7357 22.2981 17.3397 22.1347 17.0469 21.8437L11.6094 16.3906L3.62505 24.4062C3.47536 24.5548 3.29713 24.6716 3.10109 24.7494C2.90506 24.8273 2.69529 24.8647 2.48443 24.8593ZM48.5157 37.9999H2.48443C2.07003 37.9999 1.6726 37.8353 1.37957 37.5423C1.08655 37.2493 0.921929 36.8518 0.921929 36.4374C0.921929 36.023 1.08655 35.6256 1.37957 35.3326C1.6726 35.0396 2.07003 34.8749 2.48443 34.8749H48.5157C48.9301 34.8749 49.3275 35.0396 49.6205 35.3326C49.9136 35.6256 50.0782 36.023 50.0782 36.4374C50.0782 36.8518 49.9136 37.2493 49.6205 37.5423C49.3275 37.8353 48.9301 37.9999 48.5157 37.9999Z" fill="#007EE5"/>
<path d="M32.4531 25.5H25.3125C24.8981 25.5 24.5007 25.3354 24.2076 25.0424C23.9146 24.7493 23.75 24.3519 23.75 23.9375C23.75 23.5231 23.9146 23.1257 24.2076 22.8326C24.5007 22.5396 24.8981 22.375 25.3125 22.375H32.4531C32.8675 22.375 33.265 22.5396 33.558 22.8326C33.851 23.1257 34.0156 23.5231 34.0156 23.9375C34.0156 24.3519 33.851 24.7493 33.558 25.0424C33.265 25.3354 32.8675 25.5 32.4531 25.5ZM32.4531 21.5156H25.3125C24.8981 21.5156 24.5007 21.351 24.2076 21.058C23.9146 20.765 23.75 20.3675 23.75 19.9531C23.75 19.5387 23.9146 19.1413 24.2076 18.8483C24.5007 18.5552 24.8981 18.3906 25.3125 18.3906H32.4531C32.8675 18.3906 33.265 18.5552 33.558 18.8483C33.851 19.1413 34.0156 19.5387 34.0156 19.9531C34.0156 20.3675 33.851 20.765 33.558 21.058C33.265 21.351 32.8675 21.5156 32.4531 21.5156ZM15.0781 33.5937H7.9375C7.5231 33.5937 7.12567 33.4291 6.83265 33.1361C6.53962 32.8431 6.375 32.4457 6.375 32.0312C6.375 31.6168 6.53962 31.2194 6.83265 30.9264C7.12567 30.6334 7.5231 30.4687 7.9375 30.4687H15.0781C15.4925 30.4687 15.89 30.6334 16.183 30.9264C16.476 31.2194 16.6406 31.6168 16.6406 32.0312C16.6406 32.4457 16.476 32.8431 16.183 33.1361C15.89 33.4291 15.4925 33.5937 15.0781 33.5937ZM15.0781 29.5469H7.9375C7.5231 29.5469 7.12567 29.3823 6.83265 29.0892C6.53962 28.7962 6.375 28.3988 6.375 27.9844C6.375 27.57 6.53962 27.1725 6.83265 26.8795C7.12567 26.5865 7.5231 26.4219 7.9375 26.4219H15.0781C15.4925 26.4219 15.89 26.5865 16.183 26.8795C16.476 27.1725 16.6406 27.57 16.6406 27.9844C16.6406 28.3988 16.476 28.7962 16.183 29.0892C15.89 29.3823 15.4925 29.5469 15.0781 29.5469ZM32.4531 33.625H25.3125C24.8981 33.625 24.5007 33.4604 24.2076 33.1674C23.9146 32.8743 23.75 32.4769 23.75 32.0625C23.75 31.6481 23.9146 31.2507 24.2076 30.9576C24.5007 30.6646 24.8981 30.5 25.3125 30.5H32.4531C32.8675 30.5 33.265 30.6646 33.558 30.9576C33.851 31.2507 34.0156 31.6481 34.0156 32.0625C34.0156 32.4769 33.851 32.8743 33.558 33.1674C33.265 33.4604 32.8675 33.625 32.4531 33.625ZM32.4531 29.5938H25.3125C24.8981 29.5938 24.5007 29.4291 24.2076 29.1361C23.9146 28.8431 23.75 28.4457 23.75 28.0312C23.75 27.6168 23.9146 27.2194 24.2076 26.9264C24.5007 26.6334 24.8981 26.4688 25.3125 26.4688H32.4531C32.8675 26.4688 33.265 26.6334 33.558 26.9264C33.851 27.2194 34.0156 27.6168 34.0156 28.0312C34.0156 28.4457 33.851 28.8431 33.558 29.1361C33.265 29.4291 32.8675 29.5938 32.4531 29.5938ZM48.4688 33.5937H41.3281C40.9137 33.5937 40.5163 33.4291 40.2233 33.1361C39.9302 32.8431 39.7656 32.4457 39.7656 32.0312C39.7656 31.6168 39.9302 31.2194 40.2233 30.9264C40.5163 30.6334 40.9137 30.4687 41.3281 30.4687H48.4688C48.8832 30.4687 49.2806 30.6334 49.5736 30.9264C49.8666 31.2194 50.0312 31.6168 50.0312 32.0312C50.0312 32.4457 49.8666 32.8431 49.5736 33.1361C49.2806 33.4291 48.8832 33.5937 48.4688 33.5937ZM48.4688 29.5469H41.3281C40.9137 29.5469 40.5163 29.3823 40.2233 29.0892C39.9302 28.7962 39.7656 28.3988 39.7656 27.9844C39.7656 27.57 39.9302 27.1725 40.2233 26.8795C40.5163 26.5865 40.9137 26.4219 41.3281 26.4219H48.4688C48.8832 26.4219 49.2806 26.5865 49.5736 26.8795C49.8666 27.1725 50.0312 27.57 50.0312 27.9844C50.0312 28.3988 49.8666 28.7962 49.5736 29.0892C49.2806 29.3823 48.8832 29.5469 48.4688 29.5469ZM48.4688 25.5H41.3281C40.9137 25.5 40.5163 25.3354 40.2233 25.0424C39.9302 24.7493 39.7656 24.3519 39.7656 23.9375C39.7656 23.5231 39.9302 23.1257 40.2233 22.8326C40.5163 22.5396 40.9137 22.375 41.3281 22.375H48.4688C48.8832 22.375 49.2806 22.5396 49.5736 22.8326C49.8666 23.1257 50.0312 23.5231 50.0312 23.9375C50.0312 24.3519 49.8666 24.7493 49.5736 25.0424C49.2806 25.3354 48.8832 25.5 48.4688 25.5ZM48.4688 21.4844H41.3281C40.9137 21.4844 40.5163 21.3198 40.2233 21.0267C39.9302 20.7337 39.7656 20.3363 39.7656 19.9219C39.7656 19.5075 39.9302 19.11 40.2233 18.817C40.5163 18.524 40.9137 18.3594 41.3281 18.3594H48.4688C48.8832 18.3594 49.2806 18.524 49.5736 18.817C49.8666 19.11 50.0312 19.5075 50.0312 19.9219C50.0312 20.3363 49.8666 20.7337 49.5736 21.0267C49.2806 21.3198 48.8832 21.4844 48.4688 21.4844ZM48.4688 17.4375H41.3281C40.9137 17.4375 40.5163 17.2729 40.2233 16.9799C39.9302 16.6868 39.7656 16.2894 39.7656 15.875C39.7656 15.4606 39.9302 15.0632 40.2233 14.7701C40.5163 14.4771 40.9137 14.3125 41.3281 14.3125H48.4688C48.8832 14.3125 49.2806 14.4771 49.5736 14.7701C49.8666 15.0632 50.0312 15.4606 50.0312 15.875C50.0312 16.2894 49.8666 16.6868 49.5736 16.9799C49.2806 17.2729 48.8832 17.4375 48.4688 17.4375Z" fill="#007EE5"/>
</svg>
