<svg width="51" height="50" viewBox="0 0 51 50" fill="none" xmlns="http://www.w3.org/2000/svg">
<g clip-path="url(#clip0_32_302)">
<path d="M40.9792 27.0416C41.0625 26.375 41.125 25.7083 41.125 25C41.125 24.2916 41.0625 23.625 40.9792 22.9583L45.375 19.5208C45.7709 19.2083 45.875 18.6458 45.625 18.1875L41.4584 10.9791C41.2084 10.5208 40.6459 10.3541 40.1875 10.5208L35 12.6041C33.9167 11.7708 32.75 11.0833 31.4792 10.5625L30.6875 5.04163C30.625 4.54163 30.1875 4.16663 29.6667 4.16663H21.3334C20.8125 4.16663 20.375 4.54163 20.3125 5.04163L19.5209 10.5625C18.25 11.0833 17.0834 11.7916 16 12.6041L10.8125 10.5208C10.3334 10.3333 9.7917 10.5208 9.5417 10.9791L5.37503 18.1875C5.1042 18.6458 5.2292 19.2083 5.62503 19.5208L10.0209 22.9583C9.93753 23.625 9.87503 24.3125 9.87503 25C9.87503 25.6875 9.93753 26.375 10.0209 27.0416L5.62503 30.4791C5.2292 30.7916 5.12503 31.3541 5.37503 31.8125L9.5417 39.0208C9.7917 39.4791 10.3542 39.6458 10.8125 39.4791L16 37.3958C17.0834 38.2291 18.25 38.9166 19.5209 39.4375L20.3125 44.9583C20.375 45.4583 20.8125 45.8333 21.3334 45.8333H29.6667C30.1875 45.8333 30.625 45.4583 30.6875 44.9583L31.4792 39.4375C32.75 38.9166 33.9167 38.2083 35 37.3958L40.1875 39.4791C40.6667 39.6666 41.2084 39.4791 41.4584 39.0208L45.625 31.8125C45.875 31.3541 45.7709 30.7916 45.375 30.4791L40.9792 27.0416ZM25.5 32.2916C21.4792 32.2916 18.2084 29.0208 18.2084 25C18.2084 20.9791 21.4792 17.7083 25.5 17.7083C29.5209 17.7083 32.7917 20.9791 32.7917 25C32.7917 29.0208 29.5209 32.2916 25.5 32.2916Z" fill="#007EE5"/>
</g>
<defs>
<clipPath id="clip0_32_302">
<rect width="50" height="50" fill="white" transform="translate(0.5)"/>
</clipPath>
</defs>
</svg>
