<svg width="51" height="50" viewBox="0 0 51 50" fill="none" xmlns="http://www.w3.org/2000/svg">
<path d="M40.2324 17.2396C40.5729 17.2396 40.9114 17.1016 41.1584 16.8301L41.1754 16.8116C41.2852 16.6903 41.3699 16.5486 41.4246 16.3945C41.4793 16.2404 41.503 16.077 41.4942 15.9137C41.4855 15.7504 41.4445 15.5905 41.3737 15.4431C41.3028 15.2958 41.2035 15.1639 41.0814 15.0551C40.5704 14.5906 39.7714 14.6386 39.3074 15.1491C39.1444 15.3282 39.037 15.5508 38.9982 15.7899C38.9594 16.029 38.9909 16.2742 39.0889 16.4957C39.1869 16.7171 39.3472 16.9054 39.5502 17.0374C39.7532 17.1695 39.9902 17.2397 40.2324 17.2396ZM36.8134 17.8926C36.5903 18.1377 36.4738 18.4615 36.4894 18.7927C36.505 19.1238 36.6515 19.4352 36.8967 19.6583C37.1419 19.8814 37.4657 19.998 37.7968 19.9824C38.128 19.9668 38.4393 19.8202 38.6624 19.5751L38.6859 19.5491C39.1509 19.0386 39.1019 18.2611 38.5919 17.7961C38.0804 17.3321 37.2784 17.3821 36.8134 17.8926ZM11.1754 15.1306C10.7109 14.6201 9.92945 14.5911 9.41795 15.0551C8.90645 15.5191 8.87694 16.3186 9.34094 16.8301C9.45819 16.9593 9.60122 17.0625 9.7608 17.133C9.92038 17.2035 10.093 17.2398 10.2674 17.2396C10.5095 17.2395 10.7463 17.1692 10.9492 17.0372C11.152 16.9051 11.3122 16.717 11.4102 16.4957C11.5082 16.2744 11.5399 16.0293 11.5013 15.7904C11.4627 15.5514 11.3556 15.3288 11.1929 15.1496L11.1754 15.1306ZM12.7614 19.9841C13.0036 19.984 13.2405 19.9136 13.4434 19.7814C13.6463 19.6493 13.8065 19.461 13.9044 19.2395C14.0023 19.018 14.0338 18.7729 13.995 18.5339C13.9562 18.2948 13.8489 18.0722 13.6859 17.8931L13.6619 17.8671C13.1974 17.3566 12.4189 17.3336 11.9079 17.7966C11.3974 18.2616 11.3724 19.0651 11.8369 19.5756C11.9541 19.7043 12.0968 19.8071 12.256 19.8775C12.4152 19.9478 12.5874 19.9841 12.7614 19.9841ZM23.1659 43.8141C17.2304 42.7871 13.0584 37.7661 12.9664 31.9461L15.4409 32.3736L12.1419 26.2591L6.98145 30.9106L9.47094 31.3411C9.26644 39.1021 14.7164 45.9046 22.5699 47.2636C29.0449 48.3826 35.4164 45.4646 38.8029 39.8306L35.8034 38.0276C33.1669 42.4141 28.2059 44.6856 23.1659 43.8141ZM27.9519 16.1271C21.5704 15.0251 15.0449 18.0166 11.7119 23.5706L14.7129 25.3721C17.3074 21.0481 22.3889 18.7191 27.3554 19.5766C33.2929 20.6041 37.4629 25.6246 37.5554 31.4446L35.0799 31.0171L38.3799 37.1316L43.5404 32.4796L41.0509 32.0496C41.2544 24.2876 35.8079 17.4866 27.9519 16.1271Z" fill="#007EE5"/>
<path d="M40.5 9C42.2949 9 43.75 7.54493 43.75 5.75C43.75 3.95507 42.2949 2.5 40.5 2.5C38.7051 2.5 37.25 3.95507 37.25 5.75C37.25 7.54493 38.7051 9 40.5 9Z" fill="#007EE5"/>
<path d="M46.75 11.5C46.75 10.1255 44.4795 9 41.704 9H39.296C36.5205 9 34.25 10.1255 34.25 11.5V14H46.75V11.5Z" fill="#007EE5"/>
<path d="M25.5 9C27.2949 9 28.75 7.54493 28.75 5.75C28.75 3.95507 27.2949 2.5 25.5 2.5C23.7051 2.5 22.25 3.95507 22.25 5.75C22.25 7.54493 23.7051 9 25.5 9Z" fill="#007EE5"/>
<path d="M31.75 14V11.5C31.75 10.1255 29.4795 9 26.704 9H24.296C21.5205 9 19.25 10.1255 19.25 11.5V14H31.75Z" fill="#007EE5"/>
<path d="M10.5 9C12.2949 9 13.75 7.54493 13.75 5.75C13.75 3.95507 12.2949 2.5 10.5 2.5C8.70507 2.5 7.25 3.95507 7.25 5.75C7.25 7.54493 8.70507 9 10.5 9Z" fill="#007EE5"/>
<path d="M16.75 14V11.5C16.75 10.1255 14.4795 9 11.704 9H9.296C6.5205 9 4.25 10.1255 4.25 11.5V14H16.75ZM16.763 34.131H16.75V37.971H23.3125L24.6495 34.824L22.8495 32.471H27.6495L25.8495 34.824L27.1875 37.971H33.75V34.131H33.7365C33.596 32.36 30.573 30.931 26.889 30.931H25.82C28.036 30.65 29.75 28.762 29.75 26.471C29.75 23.985 27.7355 21.971 25.25 21.971C22.7645 21.971 20.75 23.985 20.75 26.471C20.75 28.762 22.4645 30.65 24.6795 30.931H23.612C19.927 30.9305 16.9045 32.36 16.763 34.131Z" fill="#007EE5"/>
</svg>
